<svg width="101" height="101" viewBox="0 0 101 101" fill="none" xmlns="http://www.w3.org/2000/svg">
<path d="M22.3163 36.4217C22.3163 34.9993 21.2427 34.6505 20.6788 34.6505V34.3821H31.1473C41.9375 34.3821 42.3938 50.5402 32.624 52.044C39.7099 54.2716 38.9589 65.867 48.9168 65.867C52.6743 65.867 54.9029 63.9078 56.4057 61.841H56.5666C55.5201 63.6665 53.1849 66.3776 47.2521 66.3776C34.2072 66.3776 35.12 56.2318 28.1678 52.1515H26.2086V59.9893C26.2086 61.3856 27.2822 61.7344 27.8461 61.7344V62.0028H20.6798V61.7344C21.2437 61.7344 22.3173 61.3856 22.3173 59.9893V36.4227L22.3163 36.4217ZM26.2086 51.6681H29.0272C37.0259 51.6681 37.5627 34.8918 29.564 34.8918H26.2086V51.6681Z" fill="#815537"/>
<path d="M42.3667 34.0594C45.1311 31.5092 49.1309 29.6846 52.9418 29.6846C62.4171 29.6846 63.8124 35.509 66.2018 42.1656L71.2209 56.1766L77.958 37.3606C78.8165 34.9722 77.6092 34.7571 77.0452 34.7571V34.4616H80.8571V34.7571C80.2931 34.7571 79.3542 34.9722 78.4948 37.3606L69.6105 62.1618H69.2075L61.4772 40.5543C59.518 35.0517 56.431 30.6769 50.9012 30.6769C47.9217 30.6769 44.9422 32.1264 42.4995 34.1932L42.3648 34.0585L42.3667 34.0594Z" fill="#815537"/>
<path d="M51.756 43.7255C51.3492 43.574 50.9526 43.3552 50.5327 43.2869C49.7332 43.1569 48.899 42.9643 48.1143 43.0662C46.6732 43.2533 45.7998 44.5101 45.9915 46.1093C46.1102 47.0987 46.3543 48.1143 46.7621 49.0196C47.5654 50.8011 48.336 52.5808 48.726 54.5054C48.7559 54.6532 48.812 54.8009 48.8859 54.9328C49.0486 55.2246 49.303 55.2713 49.4507 54.9711C49.7004 54.4643 49.9052 53.9303 50.0689 53.3897C50.2269 52.8707 50.3092 52.3292 50.5206 51.8214C50.442 52.5312 50.4065 53.2494 50.2699 53.948C50.1802 54.4053 50.0044 54.8701 49.7593 55.2657C49.432 55.796 48.8475 55.7707 48.4931 55.2507C48.3463 55.0347 48.2677 54.7701 48.1705 54.5222C47.5373 52.9081 46.937 51.2809 46.2655 49.6827C45.8044 48.5838 45.3649 47.4943 45.3172 46.2842C45.205 43.4113 47.412 41.8047 50.1138 42.8165C50.6992 43.0363 51.2528 43.3412 51.8214 43.6068C51.799 43.646 51.7775 43.6862 51.755 43.7255H51.756Z" fill="#815537"/>
<path d="M50.991 51.3183C51.6138 51.4342 51.8972 51.8775 52.0253 52.4442C52.16 53.04 52.2329 53.6506 52.4022 54.2351C52.5013 54.5755 52.7351 54.8767 52.9091 55.1946C52.9923 55.189 53.0746 55.1843 53.1578 55.1787C53.299 54.7831 53.4907 54.3969 53.5721 53.9892C53.8816 52.4368 54.5363 51.0228 55.1703 49.5863C55.6351 48.5333 56.0803 47.4111 56.2084 46.2823C56.4637 44.0416 55.1264 42.7931 52.866 42.9306C52.5827 42.9474 52.3002 42.983 51.9552 43.0157C53.9724 41.8364 56.531 43.1494 56.8209 45.4463C56.964 46.575 56.7583 47.6561 56.3384 48.6998C56.1317 49.2132 55.8689 49.7042 55.665 50.2185C55.161 51.4941 54.6737 52.7753 54.1865 54.0574C54.0715 54.3604 54.0434 54.7177 53.8611 54.9674C53.6572 55.247 53.3233 55.6117 53.0475 55.6108C52.7613 55.6108 52.3208 55.2685 52.2226 54.9823C51.9926 54.3071 51.8822 53.5805 51.8065 52.867C51.7382 52.2235 51.6119 51.6578 50.9901 51.3183H50.991Z" fill="#815537"/>
</svg>
