<svg width="308" height="308" viewBox="0 0 308 308" fill="none" xmlns="http://www.w3.org/2000/svg">
<path d="M68.0537 74.0284C68.0537 69.6907 64.7798 68.627 63.0601 68.627V67.8085H94.9838C127.888 67.8085 129.28 117.083 99.4868 121.669C121.095 128.462 118.805 163.822 149.172 163.822C160.631 163.822 167.427 157.847 172.009 151.545H172.5C169.309 157.111 162.188 165.379 144.096 165.379C104.315 165.379 107.098 134.439 85.8978 121.997H79.9231V145.898C79.9231 150.156 83.1971 151.219 84.9167 151.219V152.038H63.063V151.219C64.7827 151.219 68.0566 150.156 68.0566 145.898V74.0312L68.0537 74.0284ZM79.9231 120.522H88.5186C112.911 120.522 114.547 69.3627 90.1556 69.3627H79.9231V120.522Z" fill="#815537"/>
<path d="M129.197 66.8246C137.628 59.0476 149.825 53.4836 161.446 53.4836C190.341 53.4836 194.596 71.245 201.883 91.5445L217.188 134.271L237.733 76.8916C240.351 69.608 236.669 68.9521 234.95 68.9521V68.0509H246.574V68.9521C244.854 68.9521 241.991 69.608 239.37 76.8916L212.278 152.523H211.051L187.478 86.6307C181.503 69.8504 172.089 56.5095 155.226 56.5095C146.14 56.5095 137.054 60.9298 129.605 67.2324L129.195 66.8218L129.197 66.8246Z" fill="#815537"/>
<path d="M157.83 96.3013C156.589 95.8393 155.38 95.172 154.1 94.9638C151.661 94.5674 149.118 93.9799 146.725 94.2908C142.33 94.8612 139.667 98.694 140.251 103.571C140.613 106.588 141.358 109.685 142.601 112.446C145.051 117.878 147.401 123.306 148.59 129.175C148.681 129.625 148.852 130.076 149.078 130.478C149.574 131.368 150.35 131.51 150.8 130.595C151.562 129.049 152.186 127.421 152.685 125.772C153.167 124.19 153.418 122.538 154.063 120.99C153.823 123.154 153.715 125.345 153.298 127.475C153.025 128.869 152.489 130.287 151.741 131.493C150.743 133.11 148.961 133.033 147.88 131.448C147.432 130.789 147.193 129.982 146.896 129.226C144.965 124.304 143.134 119.341 141.087 114.468C139.681 111.117 138.34 107.794 138.195 104.104C137.853 95.3431 144.583 90.4436 152.822 93.5293C154.607 94.1995 156.296 95.1292 158.03 95.9392C157.961 96.0589 157.896 96.1816 157.827 96.3013H157.83Z" fill="#815537"/>
<path d="M155.497 119.456C157.397 119.809 158.261 121.161 158.651 122.889C159.062 124.706 159.284 126.568 159.801 128.35C160.103 129.389 160.816 130.307 161.346 131.276C161.6 131.259 161.851 131.245 162.105 131.228C162.536 130.022 163.12 128.844 163.368 127.6C164.312 122.866 166.309 118.554 168.242 114.174C169.66 110.963 171.017 107.54 171.408 104.098C172.186 97.2653 168.108 93.458 161.215 93.8773C160.351 93.9286 159.49 94.037 158.437 94.1368C164.589 90.5406 172.392 94.5446 173.276 101.549C173.712 104.991 173.085 108.288 171.804 111.47C171.174 113.036 170.372 114.533 169.751 116.102C168.214 119.992 166.728 123.899 165.242 127.809C164.891 128.733 164.806 129.822 164.25 130.583C163.628 131.436 162.61 132.548 161.768 132.546C160.896 132.546 159.553 131.502 159.253 130.629C158.552 128.57 158.215 126.354 157.984 124.178C157.776 122.216 157.391 120.491 155.494 119.456H155.497Z" fill="#815537"/>
<path d="M11.5671 191.784C11.5671 190.872 10.8513 190.658 10.4749 190.658V190.478H16.7375C22.4983 190.478 25.6667 195.954 25.6667 201.124C25.6667 213.578 8.91774 213.917 8.91774 205.042C8.91774 202.986 9.81322 201.036 11.5671 199.978V191.781V191.784ZM17.5075 206.796H17.4191C19.5494 204.971 18.1891 200.676 14.6271 200.676C14.4674 200.676 14.322 200.676 14.1623 200.693V204.951C14.1623 205.864 14.8781 206.078 15.2546 206.078V206.257H10.4777V206.078C10.8541 206.078 11.57 205.864 11.57 204.951V201.443C10.1925 202.213 9.26281 203.554 9.26281 205.345C9.26281 212.269 22.8091 214.185 22.8091 201.552C22.8262 198.278 21.2178 190.797 16.7432 190.797H14.1651V199.208C14.3077 199.19 14.4703 199.19 14.63 199.19C19.6036 199.19 20.6588 205.097 17.5104 206.796H17.5075Z" fill="#815537"/>
<path d="M27.8341 193.216H33.9171C36.5294 193.216 38.7652 194.807 38.7652 197.171C38.7652 198.549 37.8155 199.946 36.0816 200.571L38.7481 204.632C39.3926 205.599 39.7691 205.561 40.1255 205.561V205.741H36.709L33.4893 200.927H31.5215V204.435H31.5386C31.5386 205.348 32.2544 205.561 32.6309 205.561V205.741H27.8341V205.561C28.2105 205.561 28.9263 205.348 28.9263 204.435V194.522C28.9263 193.609 28.2105 193.396 27.8341 193.396V193.216ZM31.5215 193.467V200.679H33.0957C35.189 200.679 36.0474 198.925 36.0474 197.171C36.0474 195.631 35.3145 193.467 33.0957 193.467H31.5215Z" fill="#815537"/>
<path d="M41.0381 205.741V205.561C41.4146 205.561 42.0762 205.311 42.4156 204.435L46.6734 193.216H46.9415V193.233L51.1822 204.435C51.5216 205.311 52.1832 205.561 52.5596 205.561V205.741H47.6031V205.561C47.9796 205.561 48.7496 205.311 48.4073 204.435L47.298 201.518H43.7902L42.6808 204.435C42.3414 205.311 43.1114 205.561 43.485 205.561V205.741H41.0324H41.0381ZM43.8843 201.267H47.2124L45.5469 196.883L43.8843 201.267Z" fill="#815537"/>
<path d="M56.4096 204.526C56.4096 205.188 55.9619 205.761 55.2118 205.761C54.4618 205.761 54.0141 205.188 54.0141 204.526C54.0141 203.865 54.4618 203.291 55.2118 203.291C55.9619 203.291 56.4096 203.865 56.4096 204.526Z" fill="#815537"/>
<path d="M68.0937 191.088C68.0937 190.139 67.3778 189.908 67.0014 189.908V189.728H73.9799C81.1722 189.728 81.4774 200.499 74.9638 201.503C79.6864 202.989 79.1874 210.718 85.8236 210.718C88.3304 210.718 89.8134 209.412 90.8172 208.034H90.9256C90.2269 209.252 88.6698 211.057 84.7171 211.057C76.0218 211.057 76.6292 204.292 71.995 201.575H70.6888V206.799C70.6888 207.729 71.4047 207.963 71.7811 207.963V208.142H67.0042V207.963C67.3807 207.963 68.0965 207.729 68.0965 206.799V191.088H68.0937ZM70.6888 201.252H72.5682C77.9012 201.252 78.2577 190.07 72.9247 190.07H70.6888V201.252Z" fill="#815537"/>
<path d="M81.64 205.741V205.561C82.0164 205.561 82.678 205.311 83.0174 204.435L87.2752 193.216H87.5433V193.233L91.784 204.435C92.1234 205.311 92.785 205.561 93.1614 205.561V205.741H88.2049V205.561C88.5814 205.561 89.3514 205.311 89.0091 204.435L87.8998 201.518H84.392L83.2826 204.435C82.9433 205.311 83.7133 205.561 84.0868 205.561V205.741H81.6343H81.64ZM84.4861 201.267H87.8142L86.1487 196.883L84.4861 201.267Z" fill="#815537"/>
<path d="M94.9695 205.741V205.561C95.346 205.561 96.0618 205.348 96.0618 204.435V194.522C96.0618 193.609 95.346 193.396 94.9695 193.396V193.216H104.238V195.506H104.058C104.058 195.129 103.844 193.467 102.108 193.467H98.6541V200.286H100.693C102.43 200.286 102.518 199.39 102.715 199.014H102.895V201.806H102.715C102.518 201.429 102.43 200.534 100.693 200.534H98.6541V204.435C98.6541 205.348 99.3699 205.561 99.7464 205.561V205.741H94.9695Z" fill="#815537"/>
<path d="M104.238 205.741V205.561C104.614 205.561 105.276 205.311 105.615 204.435L109.873 193.216H110.141V193.233L114.382 204.435C114.721 205.311 115.383 205.561 115.76 205.561V205.741H110.803V205.561C111.179 205.561 111.949 205.311 111.607 204.435L110.498 201.518H106.99L105.881 204.435C105.541 205.311 106.311 205.561 106.685 205.561V205.741H104.232H104.238ZM107.084 201.267H110.412L108.747 196.883L107.084 201.267Z" fill="#815537"/>
<path d="M117.57 205.564C117.947 205.564 118.663 205.35 118.663 204.438V194.525C118.663 193.612 117.947 193.398 117.57 193.398V193.219H126.839V195.509H126.659C126.659 195.132 126.445 193.47 124.709 193.47H121.255V200.288H123.294C125.031 200.288 125.119 199.393 125.316 199.016H125.496V201.808H125.316C125.119 201.432 125.031 200.537 123.294 200.537H121.255V205.493H124.709C126.445 205.493 126.659 203.83 126.659 203.454H126.839V205.744H117.57V205.564Z" fill="#815537"/>
<path d="M132.868 205.493H136.681C138.417 205.493 138.631 203.83 138.631 203.454H138.811V205.744H129.183V205.564C129.56 205.564 130.275 205.35 130.275 204.438V194.525C130.275 193.612 129.56 193.398 129.183 193.398V193.219H133.96V193.398C133.584 193.398 132.868 193.612 132.868 194.525V205.493Z" fill="#815537"/>
<path d="M140.08 205.741V205.561C140.457 205.561 141.118 205.311 141.458 204.435L145.715 193.216H145.983V193.233L150.224 204.435C150.564 205.311 151.225 205.561 151.602 205.561V205.741H146.645V205.561C147.022 205.561 147.792 205.311 147.449 204.435L146.34 201.518H142.832L141.723 204.435C141.383 205.311 142.153 205.561 142.527 205.561V205.741H140.074H140.08ZM142.923 201.267H146.252L144.586 196.883L142.921 201.267H142.923Z" fill="#815537"/>
<path d="M152.517 189.514C154.359 187.814 157.026 186.597 159.567 186.597C165.884 186.597 166.813 190.481 168.408 194.918L171.753 204.258L176.244 191.716C176.818 190.124 176.011 189.979 175.637 189.979V189.782H178.178V189.979C177.802 189.979 177.177 190.122 176.604 191.716L170.68 208.251H170.412L165.259 193.846C163.953 190.179 161.894 187.261 158.209 187.261C156.224 187.261 154.237 188.228 152.608 189.605L152.52 189.517L152.517 189.514Z" fill="#815537"/>
<path d="M174.311 205.741V205.561C174.687 205.561 175.349 205.311 175.688 204.435L179.946 193.216H180.214V193.233L184.455 204.435C184.794 205.311 185.456 205.561 185.832 205.561V205.741H180.876V205.561C181.252 205.561 182.022 205.311 181.68 204.435L180.571 201.518H177.063L175.954 204.435C175.614 205.311 176.384 205.561 176.758 205.561V205.741H174.305H174.311ZM177.154 201.267H180.482L178.817 196.883L177.151 201.267H177.154Z" fill="#815537"/>
<path d="M186.192 195.757C186.192 193.43 188.875 192.68 190.738 192.68C191.596 192.68 192.759 193.019 193.635 193.538V194.97H193.51C193.079 194.128 192.095 192.931 190.7 192.931C189.306 192.931 188.553 193.772 188.553 194.773C188.553 198.172 194.707 199.122 194.707 203.112C194.707 204.9 192.794 206.28 189.985 206.28C187.874 206.28 186.836 205.456 186.192 204.886V203.437H186.317C186.622 203.973 187.589 206.032 189.985 206.032C191.111 206.032 192.24 205.53 192.24 204.295C192.24 200.859 186.192 199.715 186.192 195.76V195.757Z" fill="#815537"/>
<path d="M202.924 192.68C204.104 192.68 205.858 193.019 206.734 193.538V194.97H206.608C206.001 193.789 204.729 192.931 202.924 192.931C197.377 192.931 197.197 206.029 202.924 206.029C204.732 206.029 206.001 205.171 206.608 203.99H206.734V205.422C205.858 205.941 204.104 206.28 202.924 206.28C193.512 206.28 193.78 192.68 202.924 192.68Z" fill="#815537"/>
<path d="M221.908 199.553C221.908 203.597 218.939 206.28 214.947 206.28C210.954 206.28 207.986 203.597 207.986 199.553C207.986 196.153 210.33 192.683 214.947 192.683C219.564 192.683 221.908 196.153 221.908 199.553ZM219.153 199.213C219.153 196.028 217.81 192.934 214.95 192.934C212.089 192.934 210.743 196.028 210.743 199.213C210.743 201.666 211.727 206.032 214.95 206.032C218.172 206.032 219.153 201.666 219.153 199.213Z" fill="#815537"/>
<path d="M224.432 194.522C224.432 193.609 223.716 193.396 223.34 193.396V193.216H225.935L232.626 201.589V194.522C232.626 193.609 231.91 193.396 231.533 193.396V193.216H233.966V193.396C233.59 193.396 232.874 193.609 232.874 194.522V205.741H232.443L224.677 196.008V204.435C224.677 205.348 225.393 205.561 225.77 205.561V205.741H223.337V205.561C223.714 205.561 224.429 205.348 224.429 204.435V194.522H224.432Z" fill="#815537"/>
<path d="M242.182 192.68C243.363 192.68 245.117 193.019 245.995 193.538V194.97H245.87C245.262 193.789 243.99 192.931 242.182 192.931C236.635 192.931 236.456 206.029 242.182 206.029C243.99 206.029 245.259 205.171 245.87 203.99H245.995V205.422C245.12 205.941 243.366 206.28 242.182 206.28C232.771 206.28 233.039 192.68 242.182 192.68Z" fill="#815537"/>
<path d="M247.603 205.564C247.98 205.564 248.696 205.35 248.696 204.438V194.525C248.696 193.612 247.98 193.398 247.603 193.398V193.219H256.872V195.509H256.692C256.692 195.132 256.478 193.47 254.742 193.47H251.288V200.288H253.327C255.064 200.288 255.152 199.393 255.349 199.016H255.529V201.808H255.349C255.152 201.432 255.064 200.537 253.327 200.537H251.288V205.493H254.742C256.478 205.493 256.692 203.83 256.692 203.454H256.872V205.744H247.603V205.564Z" fill="#815537"/>
<path d="M262.168 205.493H265.978C267.715 205.493 267.929 203.83 267.929 203.454H268.108V205.744H258.48V205.564C258.857 205.564 259.573 205.35 259.573 204.438V194.525C259.573 193.612 258.857 193.398 258.48 193.398V193.219H263.257V193.398C262.881 193.398 262.165 193.612 262.165 194.525V205.493H262.168Z" fill="#815537"/>
<path d="M282.927 199.553C282.927 203.597 279.958 206.28 275.965 206.28C271.973 206.28 269.004 203.597 269.004 199.553C269.004 196.153 271.348 192.683 275.965 192.683C280.582 192.683 282.927 196.153 282.927 199.553ZM280.172 199.213C280.172 196.028 278.828 192.934 275.968 192.934C273.108 192.934 271.762 196.028 271.762 199.213C271.762 201.666 272.745 206.032 275.968 206.032C279.191 206.032 280.172 201.666 280.172 199.213Z" fill="#815537"/>
<path d="M284.178 195.757C284.178 193.43 286.862 192.68 288.724 192.68C289.583 192.68 290.746 193.019 291.622 193.538V194.97H291.496C291.066 194.128 290.082 192.931 288.687 192.931C287.293 192.931 286.54 193.772 286.54 194.773C286.54 198.172 292.694 199.122 292.694 203.112C292.694 204.9 290.781 206.28 287.971 206.28C285.861 206.28 284.823 205.456 284.178 204.886V203.437H284.304C284.609 203.973 285.576 206.032 287.971 206.032C289.098 206.032 290.227 205.53 290.227 204.295C290.227 200.859 284.178 199.715 284.178 195.76V195.757Z" fill="#815537"/>
</svg>
